<svg width="31" height="31" viewBox="0 0 31 31" fill="none" xmlns="http://www.w3.org/2000/svg">
<g clip-path="url(#clip0_701_195)">
<path d="M9.19403 12.6291L15.0314 6.79408L20.8712 12.6338L24.2659 9.23681L15.0314 0L5.797 9.23444L9.19403 12.6291Z" fill="#FABB22"/>
<path d="M0 15.0291L3.39466 11.6321L6.7917 15.0291L3.39466 18.4238L0 15.0291Z" fill="#FABB22"/>
<path d="M9.19403 17.4267L15.0314 23.2641L20.8712 17.4244L24.2682 20.8167L15.0338 30.0535L5.797 20.8238L9.19403 17.4267Z" fill="#FABB22"/>
<path d="M23.2642 15.0291L26.6588 11.6321L30.0559 15.0267L26.6588 18.4261L23.2642 15.0291Z" fill="#FABB22"/>
<path d="M18.4759 15.0267L15.0314 11.5799L12.4842 14.127L12.1899 14.419L11.5869 15.022L15.0314 18.4641L18.4759 15.0291V15.0267Z" fill="#FABB22"/>
</g>
<defs>
<clipPath id="clip0_701_195">
<rect width="30.0558" height="30.0558" fill="white"/>
</clipPath>
</defs>
</svg>
