<svg width="222" height="12" viewBox="0 0 222 12" fill="none" xmlns="http://www.w3.org/2000/svg">
<path opacity="0.2" d="M12.2844 7.37593C13.1025 7.37593 13.7658 6.71268 13.7658 5.89453C13.7658 5.07638 13.1025 4.41313 12.2844 4.41313V7.37593ZM21.8774 4.41313C21.0592 4.41313 20.396 5.07638 20.396 5.89453C20.396 6.71268 21.0592 7.37593 21.8774 7.37593V4.41313ZM26.6738 7.37593C27.492 7.37593 28.1552 6.71268 28.1552 5.89453C28.1552 5.07638 27.492 4.41313 26.6738 4.41313V7.37593ZM36.2668 4.41313C35.4487 4.41313 34.7854 5.07638 34.7854 5.89453C34.7854 6.71268 35.4487 7.37593 36.2668 7.37593V4.41313ZM41.0633 7.37593C41.8814 7.37593 42.5447 6.71268 42.5447 5.89453C42.5447 5.07638 41.8814 4.41313 41.0633 4.41313V7.37593ZM50.6563 4.41313C49.8381 4.41313 49.1749 5.07638 49.1749 5.89453C49.1749 6.71268 49.8381 7.37593 50.6563 7.37593V4.41313ZM55.4528 7.37593C56.2709 7.37593 56.9342 6.71268 56.9342 5.89453C56.9342 5.07638 56.2709 4.41313 55.4528 4.41313V7.37593ZM65.0457 4.41313C64.2276 4.41313 63.5643 5.07638 63.5643 5.89453C63.5643 6.71268 64.2276 7.37593 65.0457 7.37593V4.41313ZM69.8422 7.37593C70.6604 7.37593 71.3236 6.71268 71.3236 5.89453C71.3236 5.07638 70.6604 4.41313 69.8422 4.41313V7.37593ZM79.4352 4.41313C78.617 4.41313 77.9538 5.07638 77.9538 5.89453C77.9538 6.71268 78.617 7.37593 79.4352 7.37593V4.41313ZM84.2317 7.37593C85.0498 7.37593 85.7131 6.71268 85.7131 5.89453C85.7131 5.07638 85.0498 4.41313 84.2317 4.41313V7.37593ZM93.8246 4.41313C93.0065 4.41313 92.3432 5.07638 92.3432 5.89453C92.3432 6.71268 93.0065 7.37593 93.8246 7.37593V4.41313ZM98.6211 7.37593C99.4393 7.37593 100.103 6.71268 100.103 5.89453C100.103 5.07638 99.4393 4.41313 98.6211 4.41313V7.37593ZM108.214 4.41313C107.396 4.41313 106.733 5.07638 106.733 5.89453C106.733 6.71268 107.396 7.37593 108.214 7.37593V4.41313ZM113.011 7.37593C113.829 7.37593 114.492 6.71268 114.492 5.89453C114.492 5.07638 113.829 4.41313 113.011 4.41313V7.37593ZM122.604 4.41313C121.785 4.41313 121.122 5.07638 121.122 5.89453C121.122 6.71268 121.785 7.37593 122.604 7.37593V4.41313ZM127.4 7.37593C128.218 7.37593 128.881 6.71268 128.881 5.89453C128.881 5.07638 128.218 4.41313 127.4 4.41313V7.37593ZM136.993 4.41313C136.175 4.41313 135.512 5.07638 135.512 5.89453C135.512 6.71268 136.175 7.37593 136.993 7.37593V4.41313ZM141.789 7.37593C142.608 7.37593 143.271 6.71268 143.271 5.89453C143.271 5.07638 142.608 4.41313 141.789 4.41313V7.37593ZM151.382 4.41313C150.564 4.41313 149.901 5.07638 149.901 5.89453C149.901 6.71268 150.564 7.37593 151.382 7.37593V4.41313ZM156.179 7.37593C156.997 7.37593 157.66 6.71268 157.66 5.89453C157.66 5.07638 156.997 4.41313 156.179 4.41313V7.37593ZM165.772 4.41313C164.954 4.41313 164.291 5.07638 164.291 5.89453C164.291 6.71268 164.954 7.37593 165.772 7.37593V4.41313ZM170.568 7.37593C171.387 7.37593 172.05 6.71268 172.05 5.89453C172.05 5.07638 171.387 4.41313 170.568 4.41313V7.37593ZM180.161 4.41313C179.343 4.41313 178.68 5.07638 178.68 5.89453C178.68 6.71268 179.343 7.37593 180.161 7.37593V4.41313ZM184.958 7.37593C185.776 7.37593 186.439 6.71268 186.439 5.89453C186.439 5.07638 185.776 4.41313 184.958 4.41313V7.37593ZM194.551 4.41313C193.733 4.41313 193.069 5.07638 193.069 5.89453C193.069 6.71268 193.733 7.37593 194.551 7.37593V4.41313ZM199.347 7.37593C200.166 7.37593 200.829 6.71268 200.829 5.89453C200.829 5.07638 200.166 4.41313 199.347 4.41313V7.37593ZM208.94 4.41313C208.122 4.41313 207.459 5.07638 207.459 5.89453C207.459 6.71268 208.122 7.37593 208.94 7.37593V4.41313ZM9.88614 7.37593H12.2844V4.41313H9.88614V7.37593ZM21.8774 7.37593H26.6738V4.41313H21.8774V7.37593ZM36.2668 7.37593H41.0633V4.41313H36.2668V7.37593ZM50.6563 7.37593H55.4528V4.41313H50.6563V7.37593ZM65.0457 7.37593H69.8422V4.41313H65.0457V7.37593ZM79.4352 7.37593H84.2317V4.41313H79.4352V7.37593ZM93.8246 7.37593H98.6211V4.41313H93.8246V7.37593ZM108.214 7.37593H113.011V4.41313H108.214V7.37593ZM122.604 7.37593H127.4V4.41313H122.604V7.37593ZM136.993 7.37593H141.789V4.41313H136.993V7.37593ZM151.382 7.37593H156.179V4.41313H151.382V7.37593ZM165.772 7.37593H170.568V4.41313H165.772V7.37593ZM180.161 7.37593H184.958V4.41313H180.161V7.37593ZM194.551 7.37593H199.347V4.41313H194.551V7.37593ZM208.94 7.37593H211.339V4.41313H208.94V7.37593Z" fill="url(#paint0_linear_615_140)"/>
<ellipse cx="215.546" cy="5.89468" rx="5.78584" ry="5.43179" fill="#4DDFFD"/>
<ellipse cx="6.20424" cy="5.89468" rx="5.78584" ry="5.43179" fill="#9672FF"/>
<defs>
<linearGradient id="paint0_linear_615_140" x1="15.146" y1="7.39397" x2="216.598" y2="7.94745" gradientUnits="userSpaceOnUse">
<stop stop-color="#9672FF"/>
<stop offset="1" stop-color="#4DDFFD"/>
</linearGradient>
</defs>
</svg>
