<svg width="31" height="32" viewBox="0 0 31 32" fill="none" xmlns="http://www.w3.org/2000/svg">
<rect y="0.57428" width="30.5743" height="30.5743" rx="15.2871" fill="#1FE59E"/>
<g clip-path="url(#clip0_564_283)">
<path d="M20.3702 11.5105C19.1532 10.5312 17.228 10.3651 17.1456 10.3592C17.0178 10.3484 16.8959 10.4201 16.8434 10.5383C16.8386 10.5455 16.7968 10.6422 16.7502 10.7927C17.5552 10.9289 18.5441 11.2024 19.4386 11.7577C19.5819 11.8461 19.6261 12.0348 19.5378 12.1781C19.4792 12.2725 19.3801 12.3238 19.2774 12.3238C19.2225 12.3238 19.1663 12.3083 19.1162 12.2772C17.5779 11.323 15.6574 11.2752 15.2872 11.2752C14.917 11.2752 12.9953 11.323 11.4583 12.2772C11.3149 12.3668 11.1262 12.3226 11.0379 12.1793C10.9483 12.0348 10.9925 11.8473 11.1358 11.7577C12.0303 11.2035 13.0192 10.9289 13.8242 10.7939C13.7776 10.6422 13.7358 10.5467 13.7322 10.5383C13.6785 10.4201 13.5579 10.346 13.4289 10.3592C13.3465 10.3651 11.4212 10.5312 10.1875 11.5236C9.54379 12.1196 8.25513 15.6022 8.25513 18.613C8.25513 18.6668 8.26946 18.7181 8.29573 18.7647C9.1843 20.3269 11.6099 20.7353 12.1629 20.7532C12.1653 20.7532 12.1689 20.7532 12.1725 20.7532C12.2704 20.7532 12.3624 20.7067 12.4197 20.6278L12.9786 19.8587C11.4702 19.4693 10.6999 18.8077 10.6557 18.7683C10.5291 18.6572 10.5171 18.4637 10.6294 18.3371C10.7405 18.2105 10.934 18.1986 11.0606 18.3097C11.0785 18.3264 12.4973 19.5303 15.2872 19.5303C18.0819 19.5303 19.5007 18.3216 19.5151 18.3097C19.6417 18.1998 19.8339 18.2105 19.9462 18.3383C20.0573 18.4649 20.0453 18.6572 19.9187 18.7683C19.8745 18.8077 19.1042 19.4693 17.5958 19.8587L18.1547 20.6278C18.2121 20.7067 18.304 20.7532 18.402 20.7532C18.4056 20.7532 18.4091 20.7532 18.4115 20.7532C18.9645 20.7353 21.3901 20.3269 22.2787 18.7647C22.305 18.7181 22.3193 18.6668 22.3193 18.613C22.3193 15.6022 21.0306 12.1196 20.3702 11.5105ZM13.2999 17.3901C12.7087 17.3901 12.2298 16.8431 12.2298 16.1671C12.2298 15.4911 12.7087 14.9441 13.2999 14.9441C13.8911 14.9441 14.37 15.4911 14.37 16.1671C14.37 16.8431 13.8911 17.3901 13.2999 17.3901ZM17.2745 17.3901C16.6834 17.3901 16.2044 16.8431 16.2044 16.1671C16.2044 15.4911 16.6834 14.9441 17.2745 14.9441C17.8657 14.9441 18.3446 15.4911 18.3446 16.1671C18.3446 16.8431 17.8657 17.3901 17.2745 17.3901Z" fill="#060707"/>
</g>
<defs>
<clipPath id="clip0_564_283">
<rect width="15.2871" height="15.2871" fill="white" transform="translate(7.64355 8.21777)"/>
</clipPath>
</defs>
</svg>
