<svg width="34" height="30" viewBox="0 0 34 30" fill="none" xmlns="http://www.w3.org/2000/svg">
<path d="M32.01 10.2722L22.9879 9.03905L18.9561 1.37802C18.5937 0.693457 17.8867 0.347412 17.1797 0.347412C16.477 0.347412 15.7749 0.688828 15.4113 1.37802L11.3782 9.03847L2.35553 10.2705C0.73751 10.4904 0.0890688 12.3589 1.26206 13.4294L7.789 19.3897L6.24433 27.8082C6.0249 29.0107 7.04748 29.9754 8.19274 29.9754C8.49662 29.9754 8.80913 29.9076 9.10931 29.7584L17.1809 25.784L25.2519 29.7595C25.5515 29.9071 25.8634 29.9742 26.166 29.9742C27.3125 29.9742 28.3369 29.013 28.1175 27.81L26.5747 19.3909L33.1029 13.4317C34.2765 12.3612 33.628 10.4921 32.01 10.2722ZM24.5061 17.4014L23.3892 18.421L23.653 19.8608L24.8562 26.4258L18.561 23.3247L17.1815 22.6453L17.1834 4.29047L20.3288 10.2676L21.0179 11.5771L22.5595 11.7877L29.6005 12.7501L24.5061 17.4014Z" fill="#F8F8F8"/>
</svg>
