<svg width="27" height="26" viewBox="0 0 27 26" fill="none" xmlns="http://www.w3.org/2000/svg">
<path d="M7.88221 23.7628L6.28478 25.2517L0.584328 20.0744L4.66844 16.2953C5.49554 15.5243 6.53922 14.9865 7.67956 14.7436C8.8199 14.5007 10.0106 14.5626 11.1149 14.9222L12.0123 15.2145H17.5181C17.751 15.2144 17.9815 15.2579 18.1959 15.3424C18.4104 15.427 18.6045 15.5508 18.7666 15.7066C18.9287 15.8625 19.0556 16.047 19.1396 16.2494C19.2237 16.4518 19.2633 16.6679 19.2561 16.8848C19.2297 17.3137 19.0265 17.7164 18.689 18.0089C18.3516 18.3013 17.9059 18.461 17.4451 18.4544H14.1422C13.963 18.4544 13.7911 18.5208 13.6644 18.6389C13.5376 18.757 13.4664 18.9172 13.4664 19.0843C13.4664 19.2513 13.5376 19.4115 13.6644 19.5296C13.7911 19.6478 13.963 19.7141 14.1422 19.7141H17.4559C18.2643 19.7178 19.0432 19.4316 19.6313 18.9148C20.2195 18.398 20.572 17.6901 20.6157 16.9378C20.6157 16.9252 20.6157 16.9126 20.6157 16.8974L23.6808 13.6802C23.9921 13.3434 24.4307 13.1314 24.9054 13.0883C25.3801 13.0451 25.8543 13.1741 26.2296 13.4484C26.4153 13.5918 26.5684 13.7683 26.6797 13.9677C26.791 14.1671 26.8583 14.3852 26.8777 14.6092C26.8971 14.8332 26.8682 15.0586 26.7926 15.2721C26.7171 15.4855 26.5964 15.6826 26.4377 15.8519L20.3183 22.4023C19.9144 22.8338 19.4158 23.1795 18.8563 23.4159C18.2967 23.6524 17.6892 23.7741 17.0748 23.7728L7.88221 23.7628ZM20.5184 9.52069C20.5184 9.20331 20.3831 8.89892 20.1423 8.67449C19.9015 8.45007 19.575 8.32399 19.2345 8.32399H17.3424V6.56042C17.3273 6.25286 17.1855 5.96258 16.9467 5.74992C16.7078 5.53727 16.3902 5.4186 16.0599 5.4186C15.7296 5.4186 15.412 5.53727 15.1731 5.74992C14.9343 5.96258 14.7925 6.25286 14.7774 6.56042V8.32399H12.8853C12.7119 8.31656 12.5387 8.34199 12.3762 8.39872C12.2137 8.45545 12.0652 8.5423 11.9396 8.65404C11.8141 8.76578 11.7142 8.90008 11.646 9.04882C11.5777 9.19756 11.5425 9.35766 11.5425 9.51943C11.5425 9.68121 11.5777 9.8413 11.646 9.99005C11.7142 10.1388 11.8141 10.2731 11.9396 10.3848C12.0652 10.4966 12.2137 10.5834 12.3762 10.6401C12.5387 10.6969 12.7119 10.7223 12.8853 10.7149H14.7774V12.4784C14.7925 12.786 14.9343 13.0763 15.1731 13.2889C15.412 13.5016 15.7296 13.6203 16.0599 13.6203C16.3902 13.6203 16.7078 13.5016 16.9467 13.2889C17.1855 13.0763 17.3273 12.786 17.3424 12.4784V10.7149H19.2345C19.5745 10.7149 19.9007 10.5891 20.1414 10.3653C20.3821 10.1414 20.5176 9.83764 20.5184 9.52069ZM8.20926 2.88968V4.18968H6.81726C6.56636 4.18968 6.32573 4.28258 6.14832 4.44795C5.97091 4.61331 5.87124 4.8376 5.87124 5.07146C5.87124 5.30533 5.97091 5.52961 6.14832 5.69498C6.32573 5.86034 6.56636 5.95325 6.81726 5.95325H8.21197V7.25325C8.21197 7.48711 8.31164 7.7114 8.48905 7.87676C8.66646 8.04213 8.90709 8.13503 9.15799 8.13503C9.40889 8.13503 9.64951 8.04213 9.82693 7.87676C10.0043 7.7114 10.104 7.48711 10.104 7.25325V5.94821H11.4906C11.7415 5.94821 11.9821 5.85531 12.1595 5.68994C12.337 5.52457 12.4366 5.30029 12.4366 5.06642C12.4366 4.83256 12.337 4.60827 12.1595 4.44291C11.9821 4.27754 11.7415 4.18464 11.4906 4.18464H10.0959V2.88968C10.0959 2.65581 9.99623 2.43153 9.81882 2.26616C9.6414 2.1008 9.40078 2.00789 9.14988 2.00789C8.89898 2.00789 8.65835 2.1008 8.48094 2.26616C8.30353 2.43153 8.20386 2.65581 8.20386 2.88968H8.20926ZM20.1427 0.561768C19.9276 0.561768 19.7213 0.641398 19.5693 0.783141C19.4172 0.924883 19.3318 1.11713 19.3318 1.31758V2.43619H18.1317C17.9166 2.43619 17.7104 2.51582 17.5583 2.65756C17.4062 2.7993 17.3208 2.99155 17.3208 3.192C17.3208 3.39246 17.4062 3.5847 17.5583 3.72644C17.7104 3.86819 17.9166 3.94782 18.1317 3.94782H19.3318V5.06642C19.3318 5.26688 19.4172 5.45912 19.5693 5.60087C19.7213 5.74261 19.9276 5.82224 20.1427 5.82224C20.3577 5.82224 20.564 5.74261 20.716 5.60087C20.8681 5.45912 20.9535 5.26688 20.9535 5.06642V3.94782H22.1536C22.2601 3.94782 22.3656 3.92827 22.4639 3.89028C22.5623 3.8523 22.6517 3.79663 22.727 3.72644C22.8023 3.65626 22.862 3.57294 22.9028 3.48124C22.9435 3.38954 22.9645 3.29126 22.9645 3.192C22.9645 3.09275 22.9435 2.99446 22.9028 2.90277C22.862 2.81107 22.8023 2.72775 22.727 2.65756C22.6517 2.58738 22.5623 2.5317 22.4639 2.49372C22.3656 2.45574 22.2601 2.43619 22.1536 2.43619H20.9535V1.31758C20.9535 1.11713 20.8681 0.924883 20.716 0.783141C20.564 0.641398 20.3577 0.561768 20.1427 0.561768Z" fill="white"/>
</svg>
