<svg width="31" height="31" viewBox="0 0 31 31" fill="none" xmlns="http://www.w3.org/2000/svg">
<rect y="0.14856" width="30.5743" height="30.5743" rx="15.2871" fill="#1FE59E"/>
<g clip-path="url(#clip0_564_286)">
<path d="M12.5354 8.70932C10.3433 8.70932 8.56079 10.4918 8.56079 12.684V18.1873C8.56079 20.3795 10.3433 22.162 12.5354 22.162H18.0388C20.231 22.162 22.0135 20.3795 22.0135 18.1873V12.684C22.0135 10.4918 20.231 8.70932 18.0388 8.70932H12.5354ZM18.956 11.1553C19.2924 11.1553 19.5675 11.4304 19.5675 11.7667C19.5675 12.1031 19.2924 12.3782 18.956 12.3782C18.6197 12.3782 18.3446 12.1031 18.3446 11.7667C18.3446 11.4304 18.6197 11.1553 18.956 11.1553ZM15.2871 12.0725C17.143 12.0725 18.6503 13.5798 18.6503 15.4357C18.6503 17.2915 17.143 18.7988 15.2871 18.7988C13.4313 18.7988 11.924 17.2915 11.924 15.4357C11.924 13.5798 13.4313 12.0725 15.2871 12.0725ZM15.2871 12.684C13.7706 12.684 12.5354 13.9192 12.5354 15.4357C12.5354 16.9521 13.7706 18.1873 15.2871 18.1873C16.8036 18.1873 18.0388 16.9521 18.0388 15.4357C18.0388 13.9192 16.8036 12.684 15.2871 12.684Z" fill="#060707"/>
</g>
<defs>
<clipPath id="clip0_564_286">
<rect width="15.2871" height="15.2871" fill="white" transform="translate(7.64355 7.79214)"/>
</clipPath>
</defs>
</svg>
