<svg width="429" height="358" viewBox="0 0 429 358" fill="none" xmlns="http://www.w3.org/2000/svg">
<path d="M118.204 185.063V66.1742H97.8812V185.318C97.8812 199.374 94.5787 210.044 87.9738 217.326C81.3688 224.439 73.0703 227.996 63.0782 227.996C53.7635 227.996 45.973 225.879 39.7068 221.645C33.6099 217.241 27.8517 210.891 22.4323 202.592L7.9522 215.04C13.541 224.185 20.7387 231.722 29.5453 237.649C38.3519 243.577 49.4449 246.54 62.8241 246.54C70.784 246.54 78.151 245.27 84.9253 242.73C91.6997 240.189 97.5425 236.379 102.454 231.298C107.365 226.048 111.176 219.612 113.886 211.991C116.765 204.201 118.204 195.225 118.204 185.063ZM260.651 178.204C260.651 168.89 258.958 160.083 255.571 151.785C252.183 143.486 247.441 136.288 241.345 130.192C235.248 123.925 227.965 119.014 219.497 115.457C211.199 111.732 202.138 109.869 192.315 109.869C182.323 109.869 173.093 111.732 164.625 115.457C156.327 119.014 149.129 123.925 143.032 130.192C136.935 136.458 132.193 143.825 128.806 152.293C125.419 160.591 123.726 169.398 123.726 178.713C123.726 188.027 125.419 196.834 128.806 205.132C132.193 213.431 136.935 220.713 143.032 226.98C149.129 233.076 156.327 237.988 164.625 241.714C172.924 245.27 181.985 247.048 191.807 247.048C201.63 247.048 210.775 245.27 219.243 241.714C227.711 237.988 234.994 232.992 241.091 226.725C247.187 220.459 251.929 213.177 255.317 204.878C258.873 196.41 260.651 187.519 260.651 178.204ZM240.582 178.713C240.582 185.826 239.397 192.515 237.026 198.781C234.655 204.878 231.352 210.213 227.118 214.786C222.885 219.358 217.804 223 211.876 225.709C205.949 228.25 199.428 229.52 192.315 229.52C185.372 229.52 178.936 228.165 173.009 225.455C167.081 222.746 161.916 219.104 157.512 214.532C153.278 209.959 149.891 204.54 147.351 198.273C144.98 192.007 143.794 185.318 143.794 178.204C143.794 171.091 144.98 164.486 147.351 158.39C149.722 152.123 152.94 146.704 157.004 142.131C161.238 137.389 166.319 133.748 172.247 131.208C178.174 128.498 184.694 127.143 191.807 127.143C198.751 127.143 205.187 128.498 211.114 131.208C217.042 133.917 222.207 137.643 226.61 142.385C231.014 146.958 234.401 152.377 236.772 158.644C239.312 164.91 240.582 171.6 240.582 178.713ZM288.464 83.9568V62.3637H266.109V83.9568H288.464ZM286.94 244V112.663H267.379V244H286.94ZM313.791 168.805C313.791 162.708 314.722 157.119 316.585 152.039C318.617 146.958 321.412 142.639 324.968 139.083C328.525 135.357 332.674 132.563 337.416 130.7C342.327 128.667 347.578 127.651 353.166 127.651C364.852 127.651 373.828 131.208 380.094 138.321C386.361 145.434 389.494 155.087 389.494 167.281V244H409.054V162.454C409.054 154.664 407.869 147.551 405.498 141.115C403.296 134.679 399.994 129.175 395.591 124.603C391.357 119.861 386.106 116.219 379.84 113.679C373.743 111.139 366.715 109.869 358.755 109.869C347.408 109.869 338.178 112.409 331.065 117.49C323.952 122.401 318.194 128.413 313.791 135.526V112.663H294.23V244H313.791V168.805Z" fill="black"/>
<path d="M199.363 309.725C212.452 309.725 220.951 302.756 226.9 295.106V307.685H259.196V215.725H226.9V265.53C226.9 275.559 221.121 280.998 213.471 280.998C205.652 280.998 200.383 275.559 200.383 265.53V215.725H168.086V275.898C168.086 296.806 179.815 309.725 199.363 309.725ZM306.246 309.725C328.683 309.725 343.811 299.186 343.811 278.958V278.618C343.811 260.77 329.363 254.481 311.175 249.381C301.486 246.492 296.217 244.792 296.217 241.222V240.882C296.217 238.333 298.766 236.463 303.696 236.463C311.005 236.463 321.374 239.692 330.893 244.962L341.942 224.564C331.403 217.765 317.464 213.855 304.036 213.855C282.788 213.855 267.15 224.734 267.15 244.282V244.622C267.15 263.15 281.598 269.269 299.786 274.029C309.475 276.748 314.575 278.278 314.575 281.848V282.188C314.575 285.417 312.025 287.117 306.416 287.117C296.897 287.117 285.338 283.548 274.799 276.578L262.73 296.126C275.479 305.305 290.777 309.725 306.246 309.725Z" fill="#F0F0F0"/>
</svg>
