<svg width="36" height="34" viewBox="0 0 36 34" fill="none" xmlns="http://www.w3.org/2000/svg">
<path d="M12.8512 6.80927C9.0994 10.7632 6.52463 16.4436 6.28554 16.9789L2.12912 15.3041C0.933691 14.8206 0.639431 13.353 1.55899 12.4897L7.09476 7.29272C7.95915 6.48122 9.20975 6.11864 10.4236 6.3431L12.8512 6.80927ZM15.5915 24.3514C16.1432 24.8693 16.9525 25.0075 17.6513 24.6967C19.7847 23.7643 24.3641 21.5716 27.3251 18.7918C35.7667 10.8667 35.8403 4.40932 35.3437 1.64679C35.2786 1.30745 35.1045 0.99492 34.8449 0.751115C34.5852 0.50731 34.2523 0.343893 33.8908 0.282787C30.9482 -0.183391 24.0699 -0.114328 15.6283 7.81069C12.6673 10.5905 10.35 14.8897 9.33849 16.8925C9.00745 17.5486 9.17297 18.3256 9.70631 18.8263L15.5915 24.3514ZM28.4102 21.4162C24.1986 24.9384 18.1479 27.3556 17.5778 27.5801L19.3617 31.4822C19.8767 32.6044 21.4399 32.8807 22.3595 32.0174L27.8953 26.8204C28.7596 26.0089 29.1459 24.8348 28.9068 23.6953L28.4102 21.4162ZM12.3914 25.9053C12.5698 26.7415 12.5254 27.6061 12.2624 28.4223C11.9993 29.2386 11.5256 29.9812 10.8834 30.5843C9.46723 31.9138 5.07172 32.898 2.22108 33.4159C0.952082 33.6404 -0.169784 32.5872 0.0693026 31.3958C0.62104 28.7196 1.65095 24.5931 3.08547 23.2636C3.72788 22.6607 4.51893 22.216 5.38838 21.969C6.25783 21.722 7.17879 21.6804 8.06949 21.8478C10.2213 22.2277 11.9868 23.8852 12.3914 25.9053ZM19.8583 11.3847C19.8583 9.48548 21.5135 7.93155 23.5365 7.93155C25.5596 7.93155 27.2148 9.48548 27.2148 11.3847C27.2148 13.284 25.5596 14.8379 23.5365 14.8379C21.5135 14.8379 19.8583 13.284 19.8583 11.3847Z" fill="#F8F8F8"/>
</svg>
