<svg width="21" height="31" viewBox="0 0 21 31" fill="none" xmlns="http://www.w3.org/2000/svg">
<path d="M16.72 2.72894C17.2432 2.72894 17.7449 2.92404 18.1148 3.27131C18.4847 3.61858 18.6925 4.08958 18.6925 4.58069V26.8016C18.6925 27.2928 18.4847 27.7638 18.1148 28.111C17.7449 28.4583 17.2432 28.6534 16.72 28.6534H4.88538C4.36226 28.6534 3.86056 28.4583 3.49065 28.111C3.12075 27.7638 2.91294 27.2928 2.91294 26.8016V4.58069C2.91294 4.08958 3.12075 3.61858 3.49065 3.27131C3.86056 2.92404 4.36226 2.72894 4.88538 2.72894H16.72ZM4.88538 0.877197C3.83913 0.877197 2.83573 1.26739 2.09592 1.96193C1.35611 2.65646 0.940491 3.59846 0.940491 4.58069V26.8016C0.940491 27.7839 1.35611 28.7259 2.09592 29.4204C2.83573 30.1149 3.83913 30.5051 4.88538 30.5051H16.72C17.7663 30.5051 18.7697 30.1149 19.5095 29.4204C20.2493 28.7259 20.6649 27.7839 20.6649 26.8016V4.58069C20.6649 3.59846 20.2493 2.65646 19.5095 1.96193C18.7697 1.26739 17.7663 0.877197 16.72 0.877197L4.88538 0.877197Z" fill="#F8F8F8"/>
</svg>
