<svg width="31" height="31" viewBox="0 0 31 31" fill="none" xmlns="http://www.w3.org/2000/svg">
<rect width="30.5743" height="30.5743" rx="15.2871" fill="#1FE59E"/>
<g clip-path="url(#clip0_564_280)">
<path d="M22.9307 10.3867C22.368 10.636 21.7643 10.8051 21.13 10.8806C21.7777 10.4927 22.2735 9.87752 22.5084 9.14674C21.9009 9.50591 21.2303 9.76672 20.5157 9.9081C19.9436 9.29769 19.1297 8.91748 18.2269 8.91748C16.495 8.91748 15.0908 10.3217 15.0908 12.0527C15.0908 12.2982 15.1185 12.5379 15.172 12.7672C12.566 12.6363 10.2552 11.3878 8.70866 9.49062C8.43831 9.95299 8.28452 10.4917 8.28452 11.0668C8.28452 12.1549 8.83858 13.1149 9.67922 13.6766C9.16528 13.6594 8.68191 13.518 8.25874 13.283V13.3222C8.25874 14.8411 9.34011 16.1087 10.774 16.3972C10.5112 16.4679 10.2342 16.5071 9.94764 16.5071C9.74514 16.5071 9.5493 16.487 9.35729 16.4488C9.75658 17.6954 10.9144 18.602 12.2862 18.6268C11.2134 19.4675 9.86072 19.9671 8.39153 19.9671C8.13839 19.9671 7.88905 19.9518 7.64355 19.9241C9.03156 20.8154 10.6794 21.335 12.4505 21.335C18.2193 21.335 21.3727 16.5568 21.3727 12.4128L21.3622 12.0068C21.9783 11.5674 22.5113 11.0152 22.9307 10.3867Z" fill="#060707"/>
</g>
<defs>
<clipPath id="clip0_564_280">
<rect width="15.2871" height="15.2871" fill="white" transform="translate(7.64355 7.64362)"/>
</clipPath>
</defs>
</svg>
